HIERARCHY
ROOT root
{
	OFFSET 0.000000 0.000000 0.000000
	CHANNELS 6 Xposition Yposition Zposition Zrotation Yrotation Xrotation
	JOINT lhip
	{
		OFFSET 0.058581 -0.082280 -0.017664
		CHANNELS 3 Zrotation Yrotation Xrotation
		JOINT lknee
		{
			OFFSET 0.043451 -0.386469 0.008037
			CHANNELS 3 Zrotation Yrotation Xrotation
			JOINT lankle
			{
				OFFSET -0.014790 -0.426874 -0.037428
				CHANNELS 3 Zrotation Yrotation Xrotation
				JOINT ltoe
				{
					OFFSET 0.041054 -0.060286 0.122042
					CHANNELS 3 Zrotation Yrotation Xrotation
					End Site
					{
						OFFSET 0.000000 0.000000 0.000000
					}
				}
			}
		}
	}
	JOINT rhip
	{
		OFFSET -0.060310 -0.090513 -0.013543
		CHANNELS 3 Zrotation Yrotation Xrotation
		JOINT rknee
		{
			OFFSET -0.043257 -0.383688 -0.004843
			CHANNELS 3 Zrotation Yrotation Xrotation
			JOINT rankle
			{
				OFFSET 0.019056 -0.420046 -0.034562
				CHANNELS 3 Zrotation Yrotation Xrotation
				JOINT rtoe
				{
					OFFSET -0.034840 -0.062106 0.130323
					CHANNELS 3 Zrotation Yrotation Xrotation
					End Site
					{
						OFFSET 0.000000 0.000000 0.000000
					}
				}
			}
		}
	}
	JOINT lowerback
	{
		OFFSET 0.004439 0.124404 -0.038385
		CHANNELS 3 Zrotation Yrotation Xrotation
		JOINT upperback
		{
			OFFSET 0.004488 0.137956 0.026820
			CHANNELS 3 Zrotation Yrotation Xrotation
			JOINT chest
			{
				OFFSET -0.002265 0.056032 0.002855
				CHANNELS 3 Zrotation Yrotation Xrotation
				JOINT lowerneck
				{
					OFFSET -0.013390 0.211636 -0.033468
					CHANNELS 3 Zrotation Yrotation Xrotation
					JOINT upperneck
					{
						OFFSET 0.010113 0.088937 0.050410
						CHANNELS 3 Zrotation Yrotation Xrotation
						End Site
						{
							OFFSET 0.000000 0.000000 0.000000
						}
					}
				}
				JOINT lclavicle
				{
					OFFSET 0.071702 0.114000 -0.018898
					CHANNELS 3 Zrotation Yrotation Xrotation
					JOINT lshoulder
					{
						OFFSET 0.122921 0.045205 -0.019046
						CHANNELS 3 Zrotation Yrotation Xrotation
						JOINT lelbow
						{
							OFFSET 0.255332 -0.015649 -0.022946
							CHANNELS 3 Zrotation Yrotation Xrotation
							JOINT lwrist
							{
								OFFSET 0.265709 0.012698 -0.007375
								CHANNELS 3 Zrotation Yrotation Xrotation
								End Site
								{
									OFFSET 0.000000 0.000000 0.000000
								}
							}
						}
					}
				}
				JOINT rclavicle
				{
					OFFSET -0.082954 0.112472 -0.023707
					CHANNELS 3 Zrotation Yrotation Xrotation
					JOINT rshoulder
					{
						OFFSET -0.113228 0.046853 -0.008472
						CHANNELS 3 Zrotation Yrotation Xrotation
						JOINT relbow
						{
							OFFSET -0.260127 -0.014369 -0.031269
							CHANNELS 3 Zrotation Yrotation Xrotation
							JOINT rwrist
							{
								OFFSET -0.269108 0.006794 -0.006027
								CHANNELS 3 Zrotation Yrotation Xrotation
								End Site
								{
									OFFSET 0.000000 0.000000 0.000000
								}
							}
						}
					}
				}
			}
		}
	}
}
MOTION
Frames: 11
Frame Time: 0.033333
-0.640694 1.040560 0.897397 -9.306687 -3.100855 81.824548 10.578237 12.663208 -8.501021 -12.665317 13.181338 45.214215 4.063911 14.207435 -34.720738 0.000000 -0.000000 0.000000 -7.170151 -7.058623 -16.284161 9.268979 -4.138428 52.706912 0.298026 -7.450389 -37.931676 0.000000 -0.000000 0.000000 0.647045 -2.773712 14.531250 4.803742 -4.797598 -0.303123 -0.576950 -2.774555 0.016201 2.246224 17.234858 -14.845198 -5.941409 7.978427 8.783767 -28.710879 -1.207297 1.589932 -23.088028 5.552493 14.583616 -34.206919 -28.632124 46.988082 -13.754015 -17.124238 20.248191 31.558056 0.608295 -2.220430 17.944588 4.948650 15.348210 29.870814 47.821128 55.880678 34.905562 4.465379 25.415462 
-0.643474 1.039389 0.893307 -8.888651 -3.165750 81.132990 10.649262 12.935670 -7.562036 -12.526882 12.400814 45.271954 4.906733 14.416073 -35.495053 0.000000 -0.000000 0.000000 -7.131878 -6.978493 -16.224038 9.520297 -4.087777 54.153313 0.761552 -8.016929 -38.267513 0.000000 -0.000000 0.000000 0.159889 -2.842272 14.478116 4.745256 -4.885056 -0.450058 -0.744693 -3.008071 0.094817 2.770823 16.558071 -14.776454 -5.178500 6.681890 9.243631 -28.184909 -2.166242 1.823965 -21.285184 3.952269 14.705648 -36.208569 -30.863330 48.663536 -13.391203 -17.636268 19.461776 31.630944 0.642792 -2.101543 18.458861 3.627545 16.587815 32.071941 47.895948 57.972300 35.124183 5.067560 24.903824 
-0.645096 1.035573 0.897330 -8.025825 -3.371011 80.592977 10.759566 12.628532 -6.093127 -13.326654 11.763012 43.840599 4.482739 14.225587 -35.115199 0.000000 -0.000000 0.000000 -7.304119 -7.236586 -14.812848 9.294638 -3.897271 53.299949 1.021565 -8.231751 -38.099903 0.000000 -0.000000 0.000000 -0.206055 -2.709540 13.456752 4.576148 -5.046032 -0.620946 -0.949694 -2.956395 0.020608 2.656337 15.728119 -14.457511 -4.740956 5.571789 9.370769 -27.043201 -2.823874 1.697744 -19.174151 2.380345 15.162212 -39.569679 -34.990181 50.736330 -11.168762 -19.230087 16.967858 31.065464 0.395959 -2.238296 18.461210 2.545877 17.608565 34.625421 48.160356 59.900935 34.643884 5.511126 23.987502 
-0.646066 1.029491 0.907854 -6.918600 -3.197927 79.964853 10.837182 12.053789 -3.546639 -13.673078 10.668480 40.419144 4.304380 14.240335 -33.693722 0.000000 -0.000000 0.000000 -7.210052 -7.504885 -11.938747 9.119539 -3.607354 50.210399 1.624558 -8.498840 -37.060392 0.000000 -0.000000 0.000000 -0.394703 -2.427603 11.698485 4.558749 -5.171674 -0.435898 -0.582203 -2.888587 -0.350331 2.050554 14.313772 -13.896000 -4.435988 4.959437 8.967266 -26.047201 -3.768898 1.524171 -17.379689 0.954480 15.880795 -43.021425 -40.269438 53.479220 -9.383136 -20.055210 14.580035 30.081164 0.999082 -1.939396 17.374561 1.479719 17.724801 36.050340 48.387337 60.230200 34.263529 5.943831 23.645816 
-0.646518 1.020452 0.921217 -5.864187 -2.945251 79.924245 10.524992 11.487394 -0.942525 -13.983969 8.856041 35.769459 4.042347 14.404418 -32.371765 0.000000 -0.000000 0.000000 -6.873630 -8.031704 -9.190593 8.893332 -2.844871 46.279932 1.856539 -8.717527 -35.829717 0.000000 -0.000000 0.000000 -0.512731 -2.139429 8.786490 4.681044 -5.216841 -0.651340 -0.204246 -2.776076 -0.663502 1.870217 13.384270 -13.218819 -4.705305 5.273925 8.131475 -24.889187 -4.145727 1.241439 -15.819667 -0.821877 16.605265 -47.862995 -45.554883 58.604796 -7.849407 -20.620891 11.466579 28.638215 1.451157 -1.626932 16.223202 1.274327 18.051968 36.779377 48.387423 60.514564 33.886870 6.239185 22.506166 
-0.646552 1.011337 0.934139 -4.854699 -2.678513 80.141422 10.028845 10.109099 1.118101 -13.951352 7.605814 31.440180 3.832857 14.771806 -30.867740 0.000000 -0.000000 0.000000 -6.395351 -8.202795 -6.567138 8.583276 -2.336997 41.972839 2.343815 -9.300524 -34.771270 0.000000 -0.000000 0.000000 -0.470857 -1.835211 5.584069 4.526141 -5.143017 -0.936421 -0.217328 -2.573656 -1.220981 1.392378 12.078867 -13.766116 -3.693405 3.813752 8.173355 -22.920667 -4.703421 1.080477 -14.877383 -2.537139 17.368744 -53.024309 -50.963106 64.449834 -7.064512 -21.512230 7.928930 27.510856 1.919199 -1.188516 15.803959 1.180459 17.948048 35.232736 48.009612 59.681864 34.273792 5.752468 22.718884 
-0.645977 1.001279 0.943571 -4.164135 -2.607231 80.207960 9.549489 9.144892 3.346283 -13.812966 6.843303 27.529585 3.300459 15.019305 -29.835188 0.000000 -0.000000 0.000000 -5.937504 -8.067166 -4.261841 7.895622 -1.746025 38.607029 2.640642 -9.816896 -33.658918 0.000000 -0.000000 0.000000 -0.861423 -1.552265 2.381849 4.496157 -4.901156 -0.959663 0.064055 -2.240690 -1.823213 1.077200 11.044738 -14.000653 -3.186567 3.361862 6.524375 -21.006190 -5.557188 1.110523 -14.191348 -4.309683 17.967629 -58.648844 -56.128429 70.451610 -4.533181 -22.172992 4.198572 26.121329 2.760456 -0.729728 15.599771 1.244573 17.639182 33.204899 47.065460 57.918191 33.799437 5.585985 22.916498 
-0.643571 0.990805 0.949255 -2.944658 -2.475994 79.245828 9.007754 8.224514 5.916533 -13.330531 5.379114 24.871530 2.576005 15.355346 -29.287129 0.000000 -0.000000 0.000000 -6.008497 -8.384017 -1.167049 7.442978 -1.580927 36.066149 3.060189 -10.249121 -33.489149 0.000000 -0.000000 0.000000 -0.754801 -1.508722 0.766048 4.188689 -5.223534 -1.122505 -0.027785 -1.858293 -2.510614 0.606228 10.470736 -15.468955 -2.632062 2.781311 5.628598 -18.903724 -6.421288 0.503000 -13.396693 -6.163017 18.115149 -65.072543 -59.942741 77.412103 -2.600129 -23.294186 1.049558 25.145777 4.065004 -0.230770 15.638269 1.260641 17.394484 31.069025 45.939811 55.503021 33.439549 5.502729 22.595818 
-0.640898 0.980364 0.950635 -1.779163 -2.441874 78.082449 8.673325 7.719735 7.929460 -13.090120 3.879582 23.907958 2.480215 15.441820 -29.432536 0.000000 -0.000000 0.000000 -6.255038 -8.808438 1.514963 7.066363 -1.311847 34.764245 3.416580 -10.478757 -33.900840 0.000000 -0.000000 0.000000 -0.686088 -1.256850 -0.667000 3.876324 -5.114788 -1.179260 -0.232898 -1.566223 -3.014732 0.080766 9.969231 -17.057280 -2.427164 2.071319 4.665300 -17.423588 -7.842222 0.047456 -12.158084 -8.248754 18.136241 -71.404576 -62.655243 83.913394 -0.587997 -24.026918 -1.111955 24.674486 5.061647 -0.117480 15.864561 1.074666 17.174266 28.448057 44.258015 52.677499 34.128508 5.453989 22.676437 
-0.638686 0.970492 0.948031 -0.614903 -2.227220 76.519442 8.651969 7.122077 9.636553 -12.768220 2.752489 24.181640 2.441258 15.730021 -29.812092 0.000000 -0.000000 0.000000 -6.284764 -9.163817 3.883627 6.811553 -1.009538 34.663632 3.516577 -11.239564 -34.438596 0.000000 -0.000000 0.000000 -0.725317 -1.157286 -1.695993 3.716143 -5.143997 -1.161120 -0.196744 -1.406955 -3.443296 -0.416041 9.883416 -17.848963 -2.250186 2.127392 3.679108 -16.324194 -9.333180 -0.410147 -11.462677 -10.134287 17.910889 -76.467661 -64.482249 89.537255 0.538555 -23.583071 -3.245425 24.546361 6.422837 0.582799 15.974917 1.027946 17.145935 26.710705 42.295141 50.904115 33.530168 4.751485 23.035292 
-0.636633 0.959861 0.942585 0.435597 -2.140862 74.332957 9.047948 6.695743 11.706426 -13.143056 1.769098 25.541695 2.255979 15.698360 -31.095795 0.000000 -0.000000 0.000000 -6.590896 -9.381681 6.598809 6.409459 -0.942772 35.478373 3.361812 -11.827552 -35.507242 0.000000 -0.000000 0.000000 -0.967565 -0.882094 -2.128796 3.629723 -5.108680 -0.987685 -0.215371 -1.413626 -3.690338 -0.724191 10.012717 -18.840600 -2.231950 2.123624 3.042202 -15.290582 -10.754749 -0.602497 -11.181621 -11.803133 17.484945 -79.861129 -65.192181 94.256688 1.459869 -24.025145 -4.375133 24.494263 7.411346 0.661943 16.662730 0.862195 17.096988 25.300136 40.247684 50.338441 33.199632 4.523541 23.570164 
